<svg width="18" height="18" viewBox="0 0 18 18" fill="none" xmlns="http://www.w3.org/2000/svg">
<path d="M9.45001 8.99998L6.52501 6.07498C6.38751 5.93748 6.31876 5.76248 6.31876 5.54998C6.31876 5.33748 6.38751 5.16248 6.52501 5.02498C6.66251 4.88748 6.83751 4.81873 7.05001 4.81873C7.26251 4.81873 7.43751 4.88748 7.57501 5.02498L11.025 8.47498C11.1 8.54998 11.1531 8.63123 11.1844 8.71873C11.2156 8.80623 11.2313 8.89998 11.2313 8.99998C11.2313 9.09998 11.2156 9.19373 11.1844 9.28123C11.1531 9.36873 11.1 9.44998 11.025 9.52498L7.57501 12.975C7.43751 13.1125 7.26251 13.1812 7.05001 13.1812C6.83751 13.1812 6.66251 13.1125 6.52501 12.975C6.38751 12.8375 6.31876 12.6625 6.31876 12.45C6.31876 12.2375 6.38751 12.0625 6.52501 11.925L9.45001 8.99998Z" fill="#767676"/>
</svg>
