<svg width="32" height="33" viewBox="0 0 32 33" fill="none" xmlns="http://www.w3.org/2000/svg">
<path d="M16 30.7842C23.732 30.7842 30 24.5162 30 16.7842C30 9.05219 23.732 2.78418 16 2.78418C8.26801 2.78418 2 9.05219 2 16.7842C2 24.5162 8.26801 30.7842 16 30.7842Z" fill="url(#paint0_linear_294_1051)"/>
<path d="M21.2137 21.0658L21.8356 17.1143H17.9452V14.5512C17.9452 13.4699 18.4877 12.4153 20.2302 12.4153H22V9.05117C22 9.05117 20.3945 8.78418 18.8603 8.78418C15.6548 8.78418 13.5617 10.6771 13.5617 14.1026V17.1143H10V21.0658H13.5617V30.6187C14.2767 30.7282 15.0082 30.7842 15.7534 30.7842C16.4986 30.7842 17.2302 30.7282 17.9452 30.6187V21.0658H21.2137Z" fill="white"/>
<defs>
<linearGradient id="paint0_linear_294_1051" x1="16" y1="2.78418" x2="16" y2="30.7012" gradientUnits="userSpaceOnUse">
<stop stop-color="#18ACFE"/>
<stop offset="1" stop-color="#0163E0"/>
</linearGradient>
</defs>
</svg>
