<svg width="24" height="24" viewBox="0 0 24 24" fill="none" xmlns="http://www.w3.org/2000/svg">
  <g>
    <path d="M21.805 12.23c0-.638-.057-1.252-.163-1.84H12v3.481h5.509a4.71 4.71 0 0 1-2.044 3.09v2.56h3.305c1.936-1.785 3.035-4.415 3.035-7.291z" fill="#4285F4"/>
    <path d="M12 22c2.7 0 4.97-.89 6.627-2.41l-3.305-2.56c-.917.62-2.09.99-3.322.99-2.554 0-4.72-1.726-5.495-4.045H3.09v2.57A9.997 9.997 0 0 0 12 22z" fill="#34A853"/>
    <path d="M6.505 13.975A5.997 5.997 0 0 1 6.09 12c0-.687.12-1.353.33-1.975V7.455H3.09A9.997 9.997 0 0 0 2 12c0 1.64.39 3.19 1.09 4.545l3.415-2.57z" fill="#FBBC05"/>
    <path d="M12 6.875c1.47 0 2.78.507 3.81 1.5l2.857-2.857C16.97 3.89 14.7 3 12 3A9.997 9.997 0 0 0 3.09 7.455l3.415 2.57C7.28 8.601 9.446 6.875 12 6.875z" fill="#EA4335"/>
  </g>
</svg>
