<svg width="32" height="33" viewBox="0 0 32 33" fill="none" xmlns="http://www.w3.org/2000/svg">
<path d="M24 2.78418H8C4.68629 2.78418 2 5.47047 2 8.78418V24.7842C2 28.0979 4.68629 30.7842 8 30.7842H24C27.3137 30.7842 30 28.0979 30 24.7842V8.78418C30 5.47047 27.3137 2.78418 24 2.78418Z" fill="url(#paint0_radial_294_1058)"/>
<path d="M24 2.78418H8C4.68629 2.78418 2 5.47047 2 8.78418V24.7842C2 28.0979 4.68629 30.7842 8 30.7842H24C27.3137 30.7842 30 28.0979 30 24.7842V8.78418C30 5.47047 27.3137 2.78418 24 2.78418Z" fill="url(#paint1_radial_294_1058)"/>
<path d="M24 2.78418H8C4.68629 2.78418 2 5.47047 2 8.78418V24.7842C2 28.0979 4.68629 30.7842 8 30.7842H24C27.3137 30.7842 30 28.0979 30 24.7842V8.78418C30 5.47047 27.3137 2.78418 24 2.78418Z" fill="url(#paint2_radial_294_1058)"/>
<path d="M23 11.2842C23 12.1126 22.3284 12.7842 21.5 12.7842C20.6716 12.7842 20 12.1126 20 11.2842C20 10.4557 20.6716 9.78418 21.5 9.78418C22.3284 9.78418 23 10.4557 23 11.2842Z" fill="white"/>
<path fill-rule="evenodd" clip-rule="evenodd" d="M16 21.7842C18.7614 21.7842 21 19.5456 21 16.7842C21 14.0228 18.7614 11.7842 16 11.7842C13.2386 11.7842 11 14.0228 11 16.7842C11 19.5456 13.2386 21.7842 16 21.7842ZM16 19.7842C17.6569 19.7842 19 18.4411 19 16.7842C19 15.1273 17.6569 13.7842 16 13.7842C14.3431 13.7842 13 15.1273 13 16.7842C13 18.4411 14.3431 19.7842 16 19.7842Z" fill="white"/>
<path fill-rule="evenodd" clip-rule="evenodd" d="M6 16.3842C6 13.0239 6 11.3437 6.65396 10.0602C7.2292 8.93126 8.14708 8.01338 9.27606 7.43814C10.5595 6.78418 12.2397 6.78418 15.6 6.78418H16.4C19.7603 6.78418 21.4405 6.78418 22.7239 7.43814C23.8529 8.01338 24.7708 8.93126 25.346 10.0602C26 11.3437 26 13.0239 26 16.3842V17.1842C26 20.5445 26 22.2247 25.346 23.5081C24.7708 24.6371 23.8529 25.555 22.7239 26.1302C21.4405 26.7842 19.7603 26.7842 16.4 26.7842H15.6C12.2397 26.7842 10.5595 26.7842 9.27606 26.1302C8.14708 25.555 7.2292 24.6371 6.65396 23.5081C6 22.2247 6 20.5445 6 17.1842V16.3842ZM15.6 8.78418H16.4C18.1132 8.78418 19.2777 8.78574 20.1779 8.85928C21.0548 8.93092 21.5032 9.06077 21.816 9.22015C22.5686 9.60365 23.1805 10.2156 23.564 10.9682C23.7234 11.281 23.8533 11.7294 23.9249 12.6063C23.9984 13.5065 24 14.671 24 16.3842V17.1842C24 18.8974 23.9984 20.0619 23.9249 20.9621C23.8533 21.839 23.7234 22.2874 23.564 22.6002C23.1805 23.3528 22.5686 23.9647 21.816 24.3482C21.5032 24.5076 21.0548 24.6375 20.1779 24.7091C19.2777 24.7826 18.1132 24.7842 16.4 24.7842H15.6C13.8868 24.7842 12.7223 24.7826 11.8221 24.7091C10.9452 24.6375 10.4968 24.5076 10.184 24.3482C9.43139 23.9647 8.81947 23.3528 8.43597 22.6002C8.27659 22.2874 8.14674 21.839 8.0751 20.9621C8.00156 20.0619 8 18.8974 8 17.1842V16.3842C8 14.671 8.00156 13.5065 8.0751 12.6063C8.14674 11.7294 8.27659 11.281 8.43597 10.9682C8.81947 10.2156 9.43139 9.60365 10.184 9.22015C10.4968 9.06077 10.9452 8.93092 11.8221 8.85928C12.7223 8.78574 13.8868 8.78418 15.6 8.78418Z" fill="white"/>
<defs>
<radialGradient id="paint0_radial_294_1058" cx="0" cy="0" r="1" gradientUnits="userSpaceOnUse" gradientTransform="translate(12 23.7842) rotate(-55.3758) scale(25.5196)">
<stop stop-color="#B13589"/>
<stop offset="0.79309" stop-color="#C62F94"/>
<stop offset="1" stop-color="#8A3AC8"/>
</radialGradient>
<radialGradient id="paint1_radial_294_1058" cx="0" cy="0" r="1" gradientUnits="userSpaceOnUse" gradientTransform="translate(11 31.7842) rotate(-65.1363) scale(22.5942)">
<stop stop-color="#E0E8B7"/>
<stop offset="0.444662" stop-color="#FB8A2E"/>
<stop offset="0.71474" stop-color="#E2425C"/>
<stop offset="1" stop-color="#E2425C" stop-opacity="0"/>
</radialGradient>
<radialGradient id="paint2_radial_294_1058" cx="0" cy="0" r="1" gradientUnits="userSpaceOnUse" gradientTransform="translate(0.5 3.78418) rotate(-8.1301) scale(38.8909 8.31836)">
<stop offset="0.156701" stop-color="#406ADC"/>
<stop offset="0.467799" stop-color="#6A45BE"/>
<stop offset="1" stop-color="#6A45BE" stop-opacity="0"/>
</radialGradient>
</defs>
</svg>
