<svg width="60" height="60" viewBox="0 0 60 60" fill="none" xmlns="http://www.w3.org/2000/svg">
<circle cx="30" cy="30" r="30" fill="url(#paint0_linear_368_1965)"/>
<path fill-rule="evenodd" clip-rule="evenodd" d="M36 43C36 43.5523 35.5523 44 35 44H25C24.4477 44 24 43.5523 24 43C24 42.4477 24.4477 42 25 42H35C35.5523 42 36 42.4477 36 43ZM41 27C41.0087 30.3782 39.4568 33.5711 36.795 35.6513C36.2973 36.0328 36.0038 36.6229 36 37.25V38C36 39.1046 35.1046 40 34 40H26C24.8954 40 24 39.1046 24 38V37.25C23.9996 36.6303 23.712 36.0459 23.2213 35.6675C20.5664 33.5999 19.0098 30.4263 19 27.0613C18.9675 21.1038 23.7825 16.1425 29.735 16C32.698 15.9286 35.5645 17.0559 37.6851 19.1266C39.8056 21.1973 41.0009 24.0361 41 27ZM36.9862 25.8325C36.4552 22.866 34.1328 20.5442 31.1663 20.0138C30.6216 19.9219 30.1056 20.2891 30.0138 20.8337C29.9219 21.3784 30.2891 21.8944 30.8338 21.9862C32.905 22.335 34.6625 24.0925 35.0138 26.1675C35.0955 26.6484 35.5122 27.0002 36 27C36.0565 26.9997 36.1129 26.9951 36.1688 26.9863C36.7131 26.8933 37.079 26.3768 36.9862 25.8325Z" fill="#FFF8E1"/>
<path d="M27 46L33 46" stroke="#FFF8E1" stroke-width="2" stroke-linecap="round"/>
<defs>
<linearGradient id="paint0_linear_368_1965" x1="17.5" y1="18" x2="78.787" y2="26.4961" gradientUnits="userSpaceOnUse">
<stop stop-color="#FFC400"/>
<stop offset="1" stop-color="#FFE082" stop-opacity="0.878431"/>
</linearGradient>
</defs>
</svg>
