<svg width="24" height="23" viewBox="0 0 24 23" fill="none" xmlns="http://www.w3.org/2000/svg">
<path fill-rule="evenodd" clip-rule="evenodd" d="M23.2569 21.1875C21.5911 18.3077 19.0241 16.2427 16.0283 15.2637C19.0741 13.4505 20.5332 9.82578 19.5929 6.40805C18.6526 2.99032 15.5447 0.622024 12 0.622024C8.45528 0.622024 5.34742 2.99032 4.40712 6.40805C3.46682 9.82578 4.92586 13.4505 7.97172 15.2637C4.97594 16.2416 2.40891 18.3066 0.743125 21.1875C0.576821 21.4587 0.570782 21.7987 0.727353 22.0756C0.883924 22.3525 1.17844 22.5226 1.49653 22.5199C1.81462 22.5172 2.10617 22.342 2.25797 22.0625C4.31859 18.5012 7.96078 16.375 12 16.375C16.0392 16.375 19.6814 18.5012 21.742 22.0625C21.8938 22.342 22.1854 22.5172 22.5035 22.5199C22.8216 22.5226 23.1161 22.3525 23.2726 22.0756C23.4292 21.7987 23.4232 21.4587 23.2569 21.1875V21.1875ZM5.875 8.5C5.875 5.11726 8.61726 2.375 12 2.375C15.3827 2.375 18.125 5.11726 18.125 8.5C18.125 11.8827 15.3827 14.625 12 14.625C8.61875 14.6214 5.87862 11.8812 5.875 8.5V8.5Z" fill="#637387"/>
</svg>
