<svg width="54" height="55" viewBox="0 0 54 55" fill="none" xmlns="http://www.w3.org/2000/svg">
<path d="M11.9933 29.7615C11.9933 29.7615 10.6043 34.1416 11.4145 35.9859C11.4145 35.9859 6.2636 41.6916 11.5882 47.2243C11.5882 47.2243 22.7003 58.9814 39.137 46.1869C39.137 46.1869 47.2931 46.9157 44.7259 40.9197C44.7259 40.9197 43.1932 38.5137 39.9472 41.6916C39.9472 41.6916 57.8887 28.3207 46.5451 14.4888C35.2014 0.656909 14.8292 2.73169 9.96764 13.2209C5.10608 23.7101 11.9933 29.7615 11.9933 29.7615Z" fill="#FFFEFB" stroke="#121212" stroke-width="0.925837" stroke-miterlimit="10" stroke-linejoin="round"/>
<path d="M40.8389 43.7204C41.0416 43.3501 41.6753 42.6809 42.5877 42.9665" stroke="#121212" stroke-width="0.720096" stroke-linecap="round"/>
<path d="M30.131 16.7535C30.131 16.7535 16.0211 28.7656 12.2045 30.3826C12.2045 30.3826 11.5105 35.0027 11.7418 36.0422C11.7418 36.0422 7.57825 39.0452 9.7757 44.7048C9.7757 44.7048 3.99294 50.1333 0.17631 47.8233C0.17631 47.8233 -0.633277 47.3613 1.21721 46.8993C3.06769 46.4373 5.26514 43.2033 4.22425 38.9297C3.18335 34.6562 -0.748933 13.866 14.4019 6.70491C14.4019 6.70491 23.77 1.04535 34.2946 5.7809C34.2946 5.7809 32.5598 0.236842 36.9547 0.00583976C41.3496 -0.225163 40.1931 6.4739 40.1931 6.4739C40.1931 6.4739 43.2001 -0.571666 48.4046 3.35537C48.4046 3.35537 51.1803 8.20642 46.4384 10.1699C46.4384 10.1699 56.5004 15.5985 53.2621 30.2671C53.2621 30.2671 46.4384 45.8598 49.5611 53.8294C49.5611 53.8294 50.2551 54.9844 48.1733 54.0604C46.0915 53.1364 39.1521 50.3643 38.9208 45.9753C38.9208 45.9753 44.9349 46.7838 45.0506 42.3948C45.0506 42.3948 45.5132 39.8537 42.5062 39.8537L40.3907 41.1009C40.3907 41.1009 39.8461 41.4707 39.6148 40.4312C39.3835 39.3917 40.54 39.3917 40.54 38.2367C40.54 37.0817 40.4244 35.4647 38.4582 33.8477C36.4921 32.2307 29.8997 24.1456 30.131 16.7535Z" fill="#121212"/>
<path d="M22.6327 38.9374C22.6327 38.9374 21.4832 37.7501 20.5636 39.1749C20.5636 39.1749 19.8739 40.8372 22.2879 40.481" stroke="#121212" stroke-width="0.822967" stroke-miterlimit="10" stroke-linecap="round"/>
<path d="M15.9236 30.9644C15.9236 30.9644 16.0415 32.12 16.7489 32.3511C17.4563 32.5822 18.5174 32.9289 18.5174 34.6623C18.5174 36.3957 18.2816 39.5159 16.8668 39.2847C15.452 39.0536 14.7446 36.858 15.9236 33.16" stroke="#121212" stroke-width="1.02871" stroke-miterlimit="10" stroke-linecap="round"/>
<path d="M28.6802 31.7871C28.6802 31.7871 28.7981 32.9427 29.5055 33.1738C30.2129 33.405 31.274 33.7516 31.274 35.4851C31.274 37.2185 31.0382 40.3386 29.6234 40.1075C28.2086 39.8764 27.5012 37.6807 28.6802 33.9828" stroke="#121212" stroke-width="1.02871" stroke-miterlimit="10" stroke-linecap="round"/>
<path d="M15.7215 35.6219C15.7215 35.6219 15.8377 34.5919 16.7672 34.4775C17.6966 34.363 18.0793 34.8945 18.1614 35.6219C18.2776 36.6519 18.2334 39.3083 17.326 39.2968C16.4186 39.2842 15.0244 38.5975 15.7215 35.6219Z" fill="#121212"/>
<path d="M28.4779 36.3668C28.4779 36.3668 28.594 35.3149 29.5235 35.198C30.453 35.0811 30.8357 35.6239 30.9177 36.3668C31.0339 37.4188 30.9897 40.1316 30.0824 40.1199C29.175 40.107 27.7808 39.4057 28.4779 36.3668Z" fill="#121212"/>
<path d="M17.2046 26.6374C17.2046 26.6374 20.5931 25.6263 21.4838 28.7097" stroke="#121212" stroke-width="1.02871" stroke-miterlimit="10" stroke-linecap="round"/>
<path d="M27.8575 28.8005C27.8575 28.8005 31.38 26.4975 34.3794 28.7933" stroke="#121212" stroke-width="1.02871" stroke-miterlimit="10" stroke-linecap="round"/>
<path d="M15.657 43.1188C15.9558 42.5204 15.1783 41.5285 13.9204 40.9032C12.6625 40.278 11.4005 40.2562 11.1016 40.8545C10.8028 41.4529 11.5803 42.4449 12.8382 43.0701C14.0962 43.6954 15.3582 43.7172 15.657 43.1188Z" fill="#FF7171"/>
<path d="M32.5368 45.1614C33.9072 44.8507 34.898 44.0703 34.7499 43.4183C34.6018 42.7663 33.3708 42.4896 32.0004 42.8003C30.63 43.1109 29.6391 43.8914 29.7872 44.5434C29.9353 45.1954 31.1664 45.4721 32.5368 45.1614Z" fill="#FF7171"/>
</svg>
